<?xml version="1.0" encoding="utf-8"?>
<svg width="50px" height="50px" viewBox="0 0 50 50" version="1.1" xmlns:xlink="http://www.w3.org/1999/xlink" xmlns="http://www.w3.org/2000/svg">
  <defs>
    <filter filterUnits="userSpaceOnUse" color-interpolation-filters="sRGB" id="filter_1">
      <feFlood flood-opacity="0" result="BackgroundImageFix" />
      <feColorMatrix in="SourceAlpha" type="matrix" values="0 0 0 0 0 0 0 0 0 0 0 0 0 0 0 0 0 0 127 0" />
      <feOffset dx="0" dy="2" />
      <feGaussianBlur stdDeviation="2" />
      <feColorMatrix type="matrix" values="0 0 0 0 0.39215687 0 0 0 0 0.39215687 0 0 0 0 0.39215687 0 0 0 0.49803922 0" />
      <feBlend mode="normal" in2="BackgroundImageFix" result="effect0_dropShadow" />
      <feBlend mode="normal" in="SourceGraphic" in2="effect0_dropShadow" result="shape" />
    </filter>
  </defs>
  <g id="Group-3" transform="translate(0.5 0.5)">
    <path d="M0 24.13C0 10.8034 10.8034 0 24.13 0C37.4566 0 48.2599 10.8034 48.2599 24.13C48.2599 37.4566 37.4566 48.2599 24.13 48.2599C10.8034 48.2599 0 37.4566 0 24.13Z" id="Ellipse" fill="#000000" fill-rule="evenodd" stroke="#000000" stroke-width="1" />
    <g id="Group" transform="matrix(-4.371139E-08 1 -1 -4.371139E-08 36.03313 0.08903694)" />
    <g id="Group-2" transform="matrix(-1 -8.742278E-08 8.742278E-08 -1 48.234985 48.6161)">
      <g id="Group" transform="matrix(-1 8.742278E-08 -8.742278E-08 -1 39.09259 36.674908)">
        <path d="M7.21754 12.0011C8.38897 12.0011 9.37829 12.2925 10.2307 12.7849C11.4717 13.5008 12.4229 14.6425 13.2234 15.9299C14.3956 17.8144 15.246 20.0111 16.2122 21.6456C17.0508 23.0641 17.9765 24.0588 19.2752 24.0588C20.5773 24.0588 21.5042 23.059 22.3445 21.6351C23.3091 20.0002 24.159 17.8064 25.3301 15.9249C26.1373 14.6279 27.0973 13.4794 28.3529 12.766C29.1977 12.285 30.1766 12.0011 31.333 12.0011" id="Normal-Distribution" fill="#F90808" fill-rule="evenodd" stroke="none" filter="url(#filter_1)" />
        <path d="M24.1176 12.0588C22.946 12.0588 21.9566 11.7674 21.1041 11.275C19.8631 10.559 18.9118 9.41718 18.1112 8.12965C16.9389 6.24505 16.0885 4.04808 15.1221 2.41344C14.2834 0.994858 13.3577 7.62939e-06 12.0588 1.90735e-06C10.7566 -3.8147e-06 9.82962 0.999871 8.98927 2.42389C8.02456 4.05895 7.17457 6.25298 6.00345 8.13465C5.19618 9.43176 4.23608 10.5803 2.98036 11.2938C2.13541 11.7749 1.15647 12.0588 0 12.0588" id="Normal-Distribution-4" fill="#FF000B" fill-rule="evenodd" stroke="none" />
      </g>
    </g>
  </g>
</svg>